<?xml version="1.0" encoding="UTF-8" standalone="no"?>
<!-- Created with Inkscape (http://www.inkscape.org/) -->

<svg
   xmlns:dc="http://purl.org/dc/elements/1.1/"
   xmlns:cc="http://creativecommons.org/ns#"
   xmlns:rdf="http://www.w3.org/1999/02/22-rdf-syntax-ns#"
   xmlns:svg="http://www.w3.org/2000/svg"
   xmlns="http://www.w3.org/2000/svg"
   xmlns:sodipodi="http://sodipodi.sourceforge.net/DTD/sodipodi-0.dtd"
   xmlns:inkscape="http://www.inkscape.org/namespaces/inkscape"
   width="135.8351mm"
   height="135.74889mm"
   viewBox="0 0 481.30547 480.99999"
   id="svg3607"
   version="1.1"
   inkscape:version="0.91 r13725"
   sodipodi:docname="maze-6x6-8.svg">
  <defs
     id="defs3609">
    <inkscape:path-effect
       effect="skeletal"
       id="path-effect3402"
       is_visible="true"
       pattern="m 2.5161462,35.413021 c 0,0 6.99088,-14.5555 14.4444398,-14.5555 l 20,0 0,-4.4368 -20,0 C 9.5070262,16.420721 2.5161462,2.5318312 2.5161462,2.5318312"
       copytype="repeated_stretched"
       prop_scale="1"
       scale_y_rel="true"
       spacing="-6"
       normal_offset="0"
       tang_offset="0"
       prop_units="false"
       vertical_pattern="false"
       fuse_tolerance="0" />
    <inkscape:path-effect
       effect="skeletal"
       id="path-effect4193"
       is_visible="true"
       pattern="M 0,0 1,0"
       copytype="repeated"
       prop_scale="40"
       scale_y_rel="false"
       spacing="0"
       normal_offset="0"
       tang_offset="0"
       prop_units="false"
       vertical_pattern="false"
       fuse_tolerance="0" />
    <inkscape:path-effect
       effect="skeletal"
       id="path-effect3372"
       is_visible="true"
       pattern="M 0,0 1,0"
       copytype="repeated"
       prop_scale="40"
       scale_y_rel="true"
       spacing="0"
       normal_offset="0"
       tang_offset="0"
       prop_units="true"
       vertical_pattern="false"
       fuse_tolerance="0" />
    <inkscape:path-effect
       effect="powerstroke"
       id="path-effect4710"
       is_visible="true"
       offset_points="0,1 | 108.5,1"
       sort_points="true"
       interpolator_type="Linear"
       interpolator_beta="0.2"
       start_linecap_type="round"
       linejoin_type="round"
       miter_limit="4"
       end_linecap_type="round" />
    <inkscape:path-effect
       effect="skeletal"
       id="path-effect4701"
       is_visible="true"
       pattern="M 20,10 A 10,10 0 0 1 10,20 10,10 0 0 1 0,10 10,10 0 0 1 10,0 10,10 0 0 1 20,10 Z"
       copytype="single_stretched"
       prop_scale="1.6"
       scale_y_rel="false"
       spacing="0"
       normal_offset="0"
       tang_offset="0"
       prop_units="false"
       vertical_pattern="false"
       fuse_tolerance="0" />
    <inkscape:path-effect
       effect="skeletal"
       id="path-effect4673"
       is_visible="true"
       pattern="M 0,0 1,0"
       copytype="single_stretched"
       prop_scale="1"
       scale_y_rel="false"
       spacing="0"
       normal_offset="0"
       tang_offset="0"
       prop_units="false"
       vertical_pattern="false"
       fuse_tolerance="0" />
    <inkscape:path-effect
       effect="skeletal"
       id="path-effect4646"
       is_visible="true"
       pattern="M 0,0 1,0"
       copytype="single_stretched"
       prop_scale="1"
       scale_y_rel="false"
       spacing="0"
       normal_offset="0"
       tang_offset="0"
       prop_units="false"
       vertical_pattern="false"
       fuse_tolerance="0" />
    <inkscape:path-effect
       effect="skeletal"
       id="path-effect4568"
       is_visible="true"
       pattern="M 20,10 A 10,10 0 0 1 10,20 10,10 0 0 1 0,10 10,10 0 0 1 10,0 10,10 0 0 1 20,10 Z"
       copytype="single_stretched"
       prop_scale="1"
       scale_y_rel="false"
       spacing="0"
       normal_offset="0"
       tang_offset="0"
       prop_units="false"
       vertical_pattern="false"
       fuse_tolerance="0" />
    <inkscape:path-effect
       effect="skeletal"
       id="path-effect4545"
       is_visible="true"
       pattern="M 0,0 1,0"
       copytype="single_stretched"
       prop_scale="1"
       scale_y_rel="false"
       spacing="0"
       normal_offset="0"
       tang_offset="0"
       prop_units="false"
       vertical_pattern="false"
       fuse_tolerance="0" />
    <inkscape:path-effect
       effect="powerstroke"
       id="path-effect3719"
       is_visible="true"
       offset_points="0,1 | 12.5,1 | 25,1"
       sort_points="true"
       interpolator_type="Linear"
       interpolator_beta="0.2"
       start_linecap_type="round"
       linejoin_type="round"
       miter_limit="4"
       end_linecap_type="round" />
    <inkscape:path-effect
       effect="bend_path"
       id="path-effect3717"
       is_visible="true"
       bendpath="m 80,742.3622 440,0"
       prop_scale="1"
       scale_y_rel="false"
       vertical="false" />
    <inkscape:path-effect
       effect="skeletal"
       id="path-effect4701-2"
       is_visible="true"
       pattern="m -39.499935,-481.86225 a 10,10 0 0 1 -10,10 10,10 0 0 1 -10,-10 10,10 0 0 1 10,-10 10,10 0 0 1 10,10 z"
       copytype="single_stretched"
       prop_scale="1.6"
       scale_y_rel="false"
       spacing="0"
       normal_offset="0"
       tang_offset="0"
       prop_units="false"
       vertical_pattern="false"
       fuse_tolerance="0" />
  </defs>
  <sodipodi:namedview
     id="base"
     pagecolor="#ffffff"
     bordercolor="#666666"
     borderopacity="1.0"
     inkscape:pageopacity="0.0"
     inkscape:pageshadow="2"
     inkscape:zoom="1.726111"
     inkscape:cx="174.38548"
     inkscape:cy="230.70889"
     inkscape:document-units="px"
     inkscape:current-layer="layer2"
     showgrid="true"
     inkscape:snap-grids="true"
     inkscape:window-width="1160"
     inkscape:window-height="994"
     inkscape:window-x="529"
     inkscape:window-y="22"
     inkscape:window-maximized="0"
     inkscape:snap-intersection-paths="true"
     inkscape:snap-smooth-nodes="false"
     inkscape:snap-midpoints="true"
     fit-margin-top="0"
     fit-margin-left="0"
     fit-margin-right="0"
     fit-margin-bottom="0"
     inkscape:snap-others="true">
    <inkscape:grid
       type="xygrid"
       id="grid3615"
       originx="-59.499934"
       originy="-79.499958" />
  </sodipodi:namedview>
  <metadata
     id="metadata3612">
    <rdf:RDF>
      <cc:Work
         rdf:about="">
        <dc:format>image/svg+xml</dc:format>
        <dc:type
           rdf:resource="http://purl.org/dc/dcmitype/StillImage" />
        <dc:title></dc:title>
      </cc:Work>
    </rdf:RDF>
  </metadata>
  <g
     inkscape:label="Walls"
     inkscape:groupmode="layer"
     id="layer1"
     style="display:inline"
     transform="translate(-59.499935,-491.86225)">
    <g
       id="g3662"
       transform="translate(-6.5e-5,4.5e-5)">
      <path
         inkscape:connector-curvature="0"
         id="path3623"
         d="m 300,732.3622 0,60 20,20 60,0"
         style="fill:none;fill-rule:evenodd;stroke:#000000;stroke-width:1px;stroke-linecap:butt;stroke-linejoin:miter;stroke-opacity:1" />
      <path
         sodipodi:nodetypes="cccccc"
         inkscape:connector-curvature="0"
         id="path3627"
         d="m 219.86665,712.15122 -19.98029,20.21098 -59.88636,0 0,0 0,0 0,0"
         style="fill:none;fill-rule:evenodd;stroke:#000000;stroke-width:1px;stroke-linecap:butt;stroke-linejoin:miter;stroke-opacity:1" />
      <path
         inkscape:connector-curvature="0"
         id="path3629"
         d="m 140,652.3622 -60,0 -20,-20 0,-120 20,-20 440,0 20,20 0.30491,120.36134 L 520,652.3622 l -60,0 -20,-20 0,-40 20,-20 -140,0 -20,20 0,140 -80,0 0,-70 0,-70 -20,-20 -60,0 0,0"
         style="fill:none;fill-rule:evenodd;stroke:#000000;stroke-width:1px;stroke-linecap:butt;stroke-linejoin:miter;stroke-opacity:1"
         sodipodi:nodetypes="cccccccccccccccccccccc" />
      <path
         sodipodi:nodetypes="ccccccc"
         inkscape:connector-curvature="0"
         id="path3631"
         d="m 80,652.3622 -20,20 0,120 20,20 120,0 20,20 0.57595,40.15987"
         style="fill:none;fill-rule:evenodd;stroke:#000000;stroke-width:1px;stroke-linecap:butt;stroke-linejoin:miter;stroke-opacity:1" />
      <path
         inkscape:connector-curvature="0"
         id="path3633"
         d="m 540,672.3622 0,280 -20,20 -200,0 -20,-20"
         style="fill:none;fill-rule:evenodd;stroke:#000000;stroke-width:1px;stroke-linecap:butt;stroke-linejoin:miter;stroke-opacity:1" />
      <path
         inkscape:connector-curvature="0"
         id="path3635"
         d="m 80,812.3622 -20,20 0,120 20,20 80,0 20,-20 0,-40 -20,-20 0,0 0,0"
         style="fill:none;fill-rule:evenodd;stroke:#000000;stroke-width:1px;stroke-linecap:butt;stroke-linejoin:miter;stroke-opacity:1" />
      <path
         inkscape:connector-curvature="0"
         id="path3637"
         d="m 220,872.3622 20,20"
         style="fill:none;fill-rule:evenodd;stroke:#000000;stroke-width:1px;stroke-linecap:butt;stroke-linejoin:miter;stroke-opacity:1" />
      <path
         inkscape:connector-curvature="0"
         id="path3639"
         d="m 180,952.3622 20,20 80,0 20,-20 0,-40 20,-20 120,0 20,-20 0,-120 -20,-20 -40,0 -20,-20 0,-40"
         style="fill:none;fill-rule:evenodd;stroke:#000000;stroke-width:1px;stroke-linecap:butt;stroke-linejoin:miter;stroke-opacity:1" />
      <path
         inkscape:connector-curvature="0"
         id="path3641"
         d="m 520,652.3622 20,20"
         style="fill:none;fill-rule:evenodd;stroke:#000000;stroke-width:1px;stroke-linecap:butt;stroke-linejoin:miter;stroke-opacity:1" />
    </g>
  </g>
  <g
     inkscape:groupmode="layer"
     id="layer2"
     inkscape:label="Ground"
     transform="translate(-59.499935,-491.86225)"
     style="display:inline">
    <path
       style="fill:none;fill-opacity:1;fill-rule:evenodd;stroke:#780000;stroke-width:5;stroke-linecap:round;stroke-linejoin:miter;stroke-miterlimit:4;stroke-dasharray:none;stroke-dashoffset:0;stroke-opacity:1"
       d="m 350.01453,948.98447 c 0,0 7.06813,-14.71634 14.60406,-14.71634 0,0 20.221,0 20.221,0 0,-1.49528 0,-2.99056 0,-4.48583 -6.74033,0 -13.48067,0 -20.221,0 -7.53593,0 -14.60406,-14.04237 -14.60406,-14.04237 m 28.75876,33.24454 c 0,0 7.06813,-14.71634 14.60406,-14.71634 0,0 20.221,0 20.221,0 0,0 0,-4.48583 0,-4.48583 0,0 -20.221,0 -20.221,0 -7.53593,0 -14.60406,-14.04237 -14.60406,-14.04237 m 28.75876,33.24454 c 0,0 7.06813,-14.71634 14.60405,-14.71634 0,0 20.22101,0 20.22101,0 0,-934.26813 0,-934.26813 0,-4.48583 0,0 -20.22101,0 -20.22101,0 -7.53592,0 -14.60405,-14.04237 -14.60405,-14.04237 m 28.75876,33.24454 c 0,0 7.06813,-14.71634 14.60405,-14.71634 0,0 9.10514,0 9.10514,0 3.98178,-0.0138 7.87399,-0.86028 11.52215,-2.251 l -1.6029,-4.20173 c -3.23032,1.23368 -6.58823,1.98551 -9.91925,1.9669 0,0 -9.10514,0 -9.10514,0 -7.53592,0 -14.60405,-14.04237 -14.60405,-14.04237 m 31.73856,32.46602 c 0,0 1.31276,-2.45726 2.86785,-5.70524 1.1651,-2.43343 3.64949,-8.08289 4.96424,-10.36552 0,0 0,0 0,0 1.01681,-1.7567 2.14644,-3.2192 3.60885,-4.14655 3.24861,-2.06001 6.24442,-4.4998 8.94845,-7.20768 2.22906,-2.22589 4.27645,-4.6495 6.07989,-7.24907 l -3.68443,-2.55798 c -1.6433,2.36431 -3.51987,4.58325 -5.56742,6.63509 -2.49259,2.48738 -5.23179,4.72244 -8.17861,6.59349 -1.3394,0.85044 -3.04744,1.01289 -4.77959,0.66118 0,0 -10e-6,0 -10e-6,0 -3.16369,-0.65902 -5.90855,-2.83672 -7.73468,-5.07929 -1.78048,-2.18651 -2.56274,-4.21014 -2.56274,-4.21014 m 39.60142,12.69729 c 0,0 -0.95408,-3.60616 -1.91697,-7.92768 -0.93207,-4.18324 -2.03417,-9.41813 -1.34697,-12.82986 0,0 0,0 0,0 0.12244,-0.59957 0.29818,-1.17358 0.54095,-1.72233 1.85142,-4.18484 3.02015,-8.74517 3.03633,-13.42946 0,0 0,-7.14396 0,-7.14396 -1.49528,0 -2.99056,0 -4.48583,0 0,0 0,7.14396 0,7.14396 0.0219,3.91872 -1.02249,7.87464 -2.66329,11.61627 -0.21529,0.49094 -0.51346,0.94209 -0.87715,1.3495 0,0 0,0 0,0 -2.33011,2.59411 -6.75753,3.05594 -10.505,2.57774 -3.71423,-0.47396 -6.61689,-1.76646 -6.61689,-1.76646 m 39.8645,-14.8547 c 0,0 -14.71634,-7.06814 -14.71634,-14.60406 0,0 0,-20.22101 0,-20.22101 -1.49528,0 -2.99056,0 -4.48583,0 0,0 0,20.22101 0,20.22101 0,7.53592 -14.04237,14.60406 -14.04237,14.60406 m 33.24454,-28.75876 c 0,0 -14.71634,-7.06814 -14.71634,-14.60406 0,0 0,-20.22101 0,-20.22101 -1.49528,0 -2.99056,0 -4.48583,0 0,0 0,20.22101 0,20.22101 0,7.53592 -14.04237,14.60406 -14.04237,14.60406 m 33.24454,-28.75876 c 0,0 -14.71634,-7.06813 -14.71634,-14.60406 0,-6.74033 0,-13.48067 0,-20.22101 0,0 -4.48583,0 -4.48583,0 0,6.74034 0,13.48068 0,20.22101 0,7.53593 -14.04237,14.60406 -14.04237,14.60406 m 33.24454,-28.75876 c 0,0 -14.71634,-7.06813 -14.71634,-14.60406 0,0 0,-20.221 0,-20.221 0,0 -4.48583,0 -4.48583,0 0,0 0,20.221 0,20.221 0,7.53593 -14.04237,14.60406 -14.04237,14.60406 m 33.24454,-28.75876 c 0,0 -14.71634,-7.06813 -14.71634,-14.60406 0,0 0,-3.33557 0,-3.33557 0.005,-5.27874 -0.56895,-10.61367 -2.01287,-15.77248 l 0,0 c -0.13721,-0.48776 -0.28241,-0.97313 -0.43547,-1.45589 l -4.27565,1.35507 c 0.13813,0.43608 0.26905,0.87435 0.39262,1.31458 l 0,0 c 1.32061,4.66961 1.83877,9.59995 1.84554,14.55872 0,0 0,3.33557 0,3.33557 0,7.53593 -14.04237,14.60406 -14.04237,14.60406 m 32.05493,-31.66538 c 0,0 -4.1458,-1.78574 -8.62905,-3.98903 -4.31153,-2.1227 -9.08724,-4.48537 -10.81837,-7.68957 -0.55648,-1.03 -1.15076,-2.03947 -1.78114,-3.02579 -3.15639,-4.90614 -7.04858,-9.17763 -11.22529,-13.09789 l -3.07398,3.28178 c 4.01687,3.75169 7.67376,7.73445 10.51938,12.23172 0.57136,0.89417 1.11007,1.80924 1.61445,2.74259 1.75067,3.2396 -0.29374,7.58058 -3.05816,10.56657 -2.83242,3.1014 -6.23738,4.89337 -6.23738,4.89337 m 15.36264,-39.3475 c 0,0 -4.15723,0.87833 -8.83245,1.45153 -4.66324,0.57172 -9.93145,0.85659 -12.8043,-1.54589 -0.64632,-0.54051 -1.29388,-1.07643 -1.94119,-1.6087 -4.56768,-3.77426 -9.18064,-7.46714 -13.71477,-11.21901 l -2.86024,3.45584 c 4.57076,3.78413 9.18481,7.47786 13.71804,11.22155 0.63825,0.53062 1.27509,1.06224 1.90903,1.59579 2.90757,2.44714 3.24153,7.45106 2.56695,11.68772 -0.67339,4.22919 -2.31939,7.58681 -2.31939,7.58681 m 0.96675,-43.11873 c 0,0 -3.68035,1.75425 -8.08148,2.8983 -4.40218,1.14433 -9.53966,1.66018 -12.38576,-0.80808 -2.20365,-1.91109 -4.37298,-3.85353 -6.49272,-5.84459 -2.74613,-2.57773 -5.41961,-5.23271 -8.01643,-7.96058 l -3.24886,3.09272 c 2.65467,2.78875 5.38773,5.50303 8.19515,8.13847 2.1726,2.03774 4.38599,4.01907 6.6249,5.96128 2.85242,2.47442 3.4427,7.52901 3.33282,11.98768 -0.10989,4.45952 -0.9387,8.3098 -0.9387,8.3098 m 0.593,-43.66053 c 0,0 -3.73306,1.4931 -8.17845,2.19257 -4.448,0.69989 -9.59231,0.57599 -12.08042,-2.26805 -4.39605,-5.02491 -8.54169,-10.26858 -12.41453,-15.70666 l -3.65366,2.60211 c 3.96002,5.56013 8.19827,10.9209 12.69231,16.05792 2.48196,2.83706 2.44588,7.9566 1.89538,12.42785 -0.55122,4.47717 -1.64309,8.32436 -1.64309,8.32436 m 5.99176,-43.46365 c 0,0 -12.55082,2.93979 -18.40143,-1.25796 0,0 0,0 0,0 -0.67112,-0.49227 -1.2478,-1.05641 -1.70295,-1.71083 -3.91266,-5.62558 -8.32508,-10.92119 -13.24313,-15.72039 l -3.1325,3.21071 c 4.69756,4.58183 8.92641,9.66136 12.69242,15.07217 0.43832,0.62976 0.74216,1.34614 0.93019,2.11899 0,0 0,0 0,0 1.71319,6.6765 -3.62758,18.37573 -3.62758,18.37573 m 8.32223,-44.22127 c 0,0 -6.40865,1.45045 -12.36834,1.66004 -3.60819,0.11366 -7.12884,-0.23501 -9.40819,-1.98621 -1.58324,-1.21639 -3.23208,-2.35859 -4.95534,-3.40108 l 0,0 c -3.76015,-2.29266 -8.00268,-4.08901 -12.57973,-4.61069 l 0,0 c -0.61341,-0.0645 -1.22697,-0.11217 -1.84021,-0.1437 l -0.23817,4.46789 c 0.53263,0.03 1.0641,0.0749 1.59395,0.1354 l 0,0 c 3.69056,0.36775 7.32207,1.95784 10.74668,3.99192 l 0,0 c 1.56459,0.94038 3.07449,1.98728 4.53853,3.1152 2.18648,1.6845 2.83813,4.95392 2.68638,8.241 -0.24925,5.50842 -2.78733,10.87758 -2.78733,10.87758 m -5.89083,-43.79156 c 0,0 -3.82509,2.47421 -7.99169,5.58226 -3.834,3.30163 -7.98462,7.33289 -11.58614,8.01338 -4.38893,0.82927 -8.63767,2.37677 -12.56231,4.41684 -2.28952,1.17529 -4.50311,2.52913 -6.59497,4.05509 l 2.6487,3.6349 c 1.89848,-1.38116 3.9148,-2.61782 6.00318,-3.70354 3.59813,-1.83619 7.44115,-3.24436 11.34513,-3.99885 3.77528,-0.72961 7.19228,2.91988 8.6648,6.74521 1.04263,3.52992 0.47438,7.00248 0.47438,7.00248 m -30.91398,-25.97186 c 0,0 -0.38629,4.34848 -1.00513,9.22842 -0.6122,4.82745 -1.36784,10.25739 -3.86808,12.98634 -1.69692,1.85215 -3.23037,3.85879 -4.55875,6.01409 -2.33415,3.83175 -4.20193,7.88127 -5.66275,12.07111 l 4.2124,1.46534 c 1.3581,-3.91714 3.09647,-7.67347 5.27451,-11.19156 1.15699,-1.90191 2.51542,-3.68105 4.03367,-5.33159 2.52462,-2.7446 7.40364,-2.0591 11.18442,-0.35259 3.7895,1.71045 6.45649,4.26535 6.45649,4.26535 m -42.13868,-0.71619 c 0,0 2.35307,3.60732 4.68503,7.7628 2.31458,4.12449 4.72159,8.8771 3.92593,12.50311 -1.4798,6.74376 -2.07132,13.70361 -1.99736,20.58909 l 4.50237,-0.0425 c -0.0503,-6.60236 0.50048,-13.22967 1.87509,-19.59147 0.79413,-3.6753 5.16978,-5.94562 9.24591,-6.87148 4.07942,-0.92662 7.78783,-0.56503 7.78783,-0.56503 m -38.07551,20.12116 c 0,0 2.23371,1.44038 4.99503,3.51526 2.70449,2.03217 6.10995,4.796 8.12296,7.51009 0,0 0,0 0,0 1.08821,1.47043 1.83048,3.00117 1.96044,4.59285 0.5561,6.81053 1.63611,13.56042 3.12883,20.21668 l 4.37848,-0.983 c -1.45582,-6.47453 -2.50626,-13.01802 -3.0401,-19.59748 -0.12515,-1.54233 0.39367,-3.10769 1.30363,-4.57736 0,0 0,0 0,0 1.75995,-2.8152 4.83678,-5.10847 7.57942,-6.67412 2.70862,-1.54623 4.96742,-2.33084 4.96742,-2.33084 m -30.8845,30.81422 c 0,0 3.96321,1.28669 8.15503,3.3178 4.18398,2.02731 8.64073,4.79076 9.64375,8.40946 1.24392,4.48783 2.65843,8.92549 4.20812,13.30246 0.7411,2.08128 1.59456,4.11088 2.54959,6.08664 l 4.02128,-1.94147 c -0.88417,-1.83452 -1.66827,-3.71534 -2.34155,-5.64031 -1.51343,-4.29009 -2.89511,-8.62937 -4.10961,-13.00732 -1.00811,-3.63397 1.57652,-7.93045 4.4782,-11.16124 2.89997,-3.22887 6.07563,-5.38957 6.07563,-5.38957 m -24.39188,36.37623 c 0,0 4.26979,0.96124 8.89397,2.2935 4.58995,1.32239 9.66701,2.98414 11.70443,6.07195 3.80533,5.76717 8.4786,10.97 13.68213,15.54043 l 2.97599,-3.38771 c -4.93707,-4.33801 -9.35898,-9.2335 -12.92804,-14.61843 -2.07077,-3.12434 -0.58028,-7.8085 1.6976,-11.32325 2.27828,-3.51536 5.23631,-5.84343 5.23631,-5.84343 m -12.04925,41.25176 c 0,0 4.14666,-1.01026 8.8655,-1.70425 4.70522,-0.69198 10.01131,-1.11683 13.05122,1.07118 0.4354,0.31339 0.87315,0.62276 1.31309,0.9281 5.50074,3.76046 11.84877,5.45724 18.07076,6.68886 l 0.88338,-4.4366 c -6.04605,-1.21365 -11.83357,-2.6583 -16.38924,-5.93247 -0.41802,-0.29307 -0.83393,-0.58973 -1.24759,-0.88994 -3.05356,-2.21611 -3.49876,-7.18863 -2.90286,-11.43973 0.59493,-4.24423 2.15791,-7.69141 2.15791,-7.69141 m 7.55722,43.23872 c 0,0 2.10967,-1.91152 4.85072,-4.2624 2.67017,-2.2901 6.1641,-5.21824 9.25293,-6.45703 0,0 0,0 0,0 1.44888,-0.55321 2.89559,-0.79754 4.26286,-0.51949 6.15195,1.25104 12.10338,2.80438 16.7626,6.31764 0.33221,0.24408 0.65997,0.49421 0.98318,0.75016 l 2.78579,-3.51202 c -0.36412,-0.28941 -0.73355,-0.5727 -1.1082,-0.84964 -5.64096,-4.04692 -12.18102,-5.87504 -18.52852,-7.14199 -1.40526,-0.28048 -2.6957,-1.00993 -3.85768,-2.00949 0,0 0,0 0,0 -2.59898,-2.31924 -4.44173,-5.89288 -5.47682,-9.01 -1.01807,-3.06586 -1.20255,-5.50444 -1.20255,-5.50444 m 16.11626,37.97919 c 0,0 2.45219,-3.23698 6.15092,-5.08574 3.75798,-1.67522 8.5526,-2.01549 10.85641,0.84307 2.86614,3.55629 5.11155,7.64408 6.62029,11.96689 0.6281,1.81514 1.22142,3.63698 1.74832,5.46583 l 4.31608,-1.24082 c -0.55354,-1.93078 -1.17328,-3.83024 -1.82755,-5.69868 -1.6649,-4.80681 -4.15895,-9.34244 -7.36619,-13.31039 -2.28085,-2.82184 -2.92719,-7.96344 -3.60085,-12.61225 -1.07614,-5.11312 -2.11864,-9.71459 -2.11864,-9.71459 m -5.09865,41.81494 c 0,0 0.17146,-0.0106 0.48066,-0.02 1.29668,0.12317 5.32014,0.56993 9.07394,1.8865 3.79963,1.33264 7.45357,3.65363 7.92782,6.96588 0.0944,0.65939 0.17451,1.31973 0.23885,1.98104 0,0 0,0 0,0 0.45687,5.0152 0.0549,10.16795 -2.30518,14.27111 l 0,0 c -0.33824,0.61078 -0.71134,1.20418 -1.11454,1.78117 l 3.66942,2.56306 c 0.48275,-0.69146 0.93734,-1.40861 1.35903,-2.15244 2.8795,-5.29268 3.46477,-11.32374 2.85516,-16.90603 l 0,0 c -0.0742,-0.72917 -0.16403,-1.45429 -0.26819,-2.17538 -0.4907,-3.39698 1.39883,-7.44521 3.56884,-11.05059 2.20165,-3.65793 4.63762,-6.70399 5.54859,-7.79153 0.19798,-0.28856 0.30923,-0.44522 0.30923,-0.44522 m -28.42969,28.50719 c 0,0 2.91356,1.12403 5.22239,3.59312 2.83692,3.28687 3.98429,8.89237 0.65887,11.66908 -3e-5,2e-5 -0.0534,0.0445 -0.0535,0.0446 -2.87775,2.38022 -6.09856,4.37647 -9.48479,6.08025 l 0,10e-6 c -2.4379,1.22319 -4.95132,2.28811 -7.52328,3.15989 l 1.43966,4.24804 c 2.78159,-0.94248 5.48609,-2.08713 8.09651,-3.39908 l 0,0 c 3.63226,-1.81903 7.13415,-3.99853 10.328,-6.63002 0.0199,-0.0163 0.0398,-0.0325 0.0596,-0.0489 2.85329,-2.34141 9.60711,-3.39364 14.61888,-4.9655 4.43649,-1.68819 7.96901,-3.41122 7.96901,-3.41122 m -43.16955,-1.352 c 0,0 0.79575,8.33974 -2.55487,13.83738 0,0 0,0 0,0 -1.22434,1.94014 -2.8013,3.43707 -4.70183,3.68737 -0.91217,0.12014 -1.81837,0.18681 -2.71677,0.18202 0,0 -17.24656,0 -17.24656,0 0,1.49528 0,2.99056 0,4.48583 0,0 17.24656,0 17.24656,0 1.11748,-0.006 2.21561,-0.0872 3.29256,-0.22409 2.16271,-0.27494 4.46519,0.20707 6.75337,1.07 0,0 1e-5,0 1e-5,0 6.22846,2.33345 13.73717,7.2087 13.73717,7.2087 m -34.96337,-27.25678 c 0,0 -7.06813,14.71634 -14.60405,14.71634 0,0 -20.22101,0 -20.22101,0 0,1.49528 0,2.99056 0,4.48583 0,0 20.22101,0 20.22101,0 7.53592,0 14.60405,14.04237 14.60405,14.04237 m -28.75876,-33.24454 c 0,0 -7.06813,14.71634 -14.60405,14.71634 0,0 -20.22101,0 -20.22101,0 0,0 0,4.48583 0,4.48583 0,0 20.22101,0 20.22101,0 7.53592,0 14.60405,14.04237 14.60405,14.04237 m -28.75876,-33.24454 c 0,0 -7.06813,14.71634 -14.60405,14.71634 0,0 -7.3784,0 -7.3784,0 0,0 -12.84261,0 -12.84261,0 0,1.49528 0,2.99056 0,4.48583 4.28087,0 8.56174,0 12.84261,0 0,0 7.3784,0 7.3784,0 7.53592,0 14.60405,14.04237 14.60405,14.04237"
       id="path3361"
       inkscape:connector-curvature="0"
       sodipodi:nodetypes="cssssaaaaaaascc"
       inkscape:path-effect="#path-effect3402"
       inkscape:original-d="m 350.01453,932.3622 109.98547,0 c 18.85618,0 40,-21.14382 40,-40 l 0,-134.05232 c 0,-45.94768 -43.37209,-45.32558 -83.37209,-105.32558 -5.547,-8.3205 -21.32436,-28.88426 -37.32267,-30.6221 -14.61438,-1.58751 -31.62091,7.46799 -39.30524,20 -15.68194,25.57493 -9.99908,61.7154 0,90 4.95277,14.01001 15.82643,26.17798 28.01744,34.67442 12.50006,8.71182 31.03275,5.60786 43.29942,14.64535 6.40743,4.72068 11.39418,11.81738 14.00872,19.3343 3.43564,9.87763 6.44123,22.2212 1.3314,31.34593 -6.70399,11.97143 -26.54866,20 -35.97675,20 l -90.68023,0 -12.84261,0" />
    <rect
       style="opacity:1;fill:#3c0000;fill-opacity:1;stroke:#646464;stroke-width:0;stroke-linecap:round;stroke-linejoin:miter;stroke-miterlimit:4;stroke-dasharray:none;stroke-opacity:1"
       id="rect4726"
       width="80"
       height="39.999981"
       x="220"
       y="692.36218" />
    <path
       inkscape:connector-curvature="0"
       style="opacity:1;fill:#ffffff;fill-opacity:1;stroke:none;stroke-width:1;stroke-linecap:butt;stroke-linejoin:miter;stroke-miterlimit:4;stroke-dasharray:none;stroke-opacity:1"
       d="m 362.0944,1009.7371 10,0 -2.43866,5 -10,0 z"
       id="rect4168-7" />
    <path
       style="fill:none;fill-opacity:1;fill-rule:evenodd;stroke:#780000;stroke-width:5;stroke-linecap:round;stroke-linejoin:miter;stroke-miterlimit:4;stroke-dasharray:none;stroke-opacity:1;image-rendering:auto"
       d="m 321.55556,948.8545 c 0,0 6.99088,-14.5555 14.44444,-14.5555 l 20,0 0,-4.4368 -20,0 c -7.45356,0 -14.44444,-13.88889 -14.44444,-13.88889"
       id="path4239-3"
       inkscape:connector-curvature="0"
       sodipodi:nodetypes="csccsc" />
    <rect
       style="opacity:1;fill:#d2e5f0;fill-opacity:1;stroke:none;stroke-width:1;stroke-linecap:butt;stroke-linejoin:miter;stroke-miterlimit:4;stroke-dasharray:none;stroke-opacity:1"
       id="rect5626"
       width="80"
       height="100.00002"
       x="220"
       y="592.36218" />
    <path
       inkscape:connector-curvature="0"
       style="display:inline;opacity:1;fill:#007800;fill-opacity:1;stroke:#646464;stroke-width:0;stroke-linecap:butt;stroke-linejoin:miter;stroke-miterlimit:4;stroke-dasharray:none;stroke-opacity:1"
       d="m 232.12587,523.38426 c -20.23535,-0.88635 -40.11483,-5.92605 -60.32131,-7.32334 -16.36689,-1.13178 -33.05302,-3.6939 -49.21059,-0.84981 -11.72924,2.06461 -24.205436,5.16689 -33.365519,12.77809 -6.169375,5.12618 -9.870943,12.96441 -12.576172,20.51562 -2.558648,7.14205 -3.421731,15.14161 -3.132813,22.54297 0.330564,14.22939 4.949545,28.70717 14.212891,40.89257 3.563421,4.51102 7.931894,8.06504 12.810543,10.52931 4.87953,2.40015 9.65046,3.8255 14.06641,4.52735 9.65392,1.5478 18.32269,1.34792 25.80469,1.08203 1.74961,-0.0196 3.42916,-0.0545 5.06641,-0.082 7.34085,0.19633 11.87121,0.40493 14.81445,0.75781 2.13851,0.44811 3.87076,0.87883 4.95117,1.52344 0.96725,0.52444 1.82293,1.17762 2.26563,1.83398 3.86615,4.33179 5.23646,11.90476 5.4668,19.83008 -0.29628,7.9821 -2.03925,15.76369 -5.97657,21.1582 -0.54408,0.70395 -1.12331,1.33669 -1.73633,1.89649 -0.38534,0.31894 -0.79398,0.6293 -1.23828,0.91992 -1.32615,0.9115 -3.2881,1.64069 -5.64844,2.39843 -5.38486,1.72522 -12.19278,2.24685 -20.02343,3.13672 -7.24108,0.66568 -15.52604,1.52266 -24.49219,3.92774 -0.45291,0.12149 -0.90695,0.24544 -1.36329,0.375 -4.3843,1.24625 -9.00824,3.19128 -13.628901,6.04101 -4.602242,2.88472 -8.697907,6.73849 -12.017578,11.45508 -7.142304,10.61269 -10.527803,22.63067 -10.644532,34.27149 -0.815543,11.55513 2.696332,24.57026 12.119141,35.70703 5.518141,5.87814 12.26173,10.35176 19.7168,13.14453 7.43084,2.6753 14.75484,3.81056 21.56836,3.91601 7.45965,0.16796 14.50695,-0.47558 21.08008,-1.45703 7.09641,-1.03391 13.88265,-2.38032 20.37891,-3.71289 12.24956,-2.43378 23.44522,-5.02325 33.93554,-5.62695 1.34438,-0.0424 2.72071,-0.0672 4.26563,-0.0684 3.32158,-0.003 6.13103,0.11363 8.61328,0.40625 1.05594,0.15324 2.07607,0.34857 3.05664,0.59375 3.68431,0.90117 7.09565,2.33051 9.69336,4.33984 6.05813,4.44524 11.25761,10.51945 15.5664,17.31446 4.53606,7.17223 7.96189,15.35589 10.69336,23.94531 5.68796,17.89399 7.76435,37.23681 8.22852,56.53906 0.14178,10.50502 -0.36223,20.40202 -2.74219,29.29688 -1.164,4.33174 -2.56129,8.26308 -4.48437,11.49609 -1.81778,3.04004 -3.92735,5.66421 -6.30469,7.3418 -2.26858,2.07502 -6.64834,2.85905 -11.32813,3.11718 -4.86339,-0.12537 -9.49079,-1.04329 -12.63671,-3.19335 -1.73452,-1.03743 -3.3555,-2.64359 -4.74219,-4.51368 -1.50671,-1.99205 -2.74142,-4.62285 -3.9082,-7.58984 -0.12737,-0.32379 -0.23797,-0.66736 -0.35938,-0.99805 -0.97081,-2.87501 -1.91829,-6.3159 -2.91211,-10.54297 -0.81959,-3.82283 -1.53811,-7.85832 -2.32812,-12.02734 -1.53808,-8.82312 -3.27486,-18.34903 -6.92383,-28.2168 -1.7096,-4.61623 -4.07957,-9.3025 -7.29688,-13.79492 -3.26393,-4.51005 -7.41577,-8.42084 -12.28906,-11.47265 -13.81306,-8.26595 -29.19965,-11.05144 -43.31641,-10.23438 -14.88802,0.57235 -29.52341,4.96775 -41.91016,13.25 -4.697352,3.24273 -8.450974,7.20443 -11.277341,11.47852 -2.932916,4.43085 -5.050846,8.96899 -6.59375,13.35156 -3.221151,9.1554 -4.81416,18.11556 -6.160156,26.02539 -1.171181,6.46032 -1.852005,13.1463 -1.664062,20.01367 0.143437,7.03135 1.545983,14.27543 4.623046,21.17188 5.203321,11.47056 14.564227,20.29495 25.724613,24.78711 9.28136,3.51341 18.88964,2.94181 26.90625,-0.31836 4.81754,-1.86469 9.45244,-4.4491 13.62305,-7.83399 4.36905,-3.37008 8.04362,-8.24842 10.04492,-14.34375 1.66686,-6.19929 1.22252,-12.12273 -0.40625,-17.11523 -1.59184,-5.3054 -4.34607,-10.11519 -7.98242,-14.08203 -3.73432,-3.85382 -8.0063,-6.0995 -12.01368,-7.22071 -4.30841,-1.27586 -8.35337,-1.83051 -11.78125,-2.26953 -3.76339,-0.53749 -6.8742,-0.89437 -9.60742,-1.72265 -1.56214,-0.51131 -2.9597,-1.05569 -4.08008,-1.71485 -0.73187,-0.51335 -1.44609,-1.12618 -2.13476,-1.82617 -2.38911,-2.63311 -4.09557,-5.88626 -5.13477,-9.16211 -0.12953,-0.44731 -0.2459,-0.88969 -0.35352,-1.33008 0.54225,-1.73352 1.13048,-3.41019 1.78711,-5.00976 1.27116,-3.09644 2.65289,-5.92762 4.33985,-8.18946 1.56835,-2.09238 3.31045,-3.88644 5.17188,-4.98047 7.13027,-4.63435 16.02612,-7.18971 25.45703,-7.97851 0.63578,-0.0438 1.25905,-0.094 1.91992,-0.125 1.25983,-0.0591 2.48893,-0.0799 3.70508,-0.082 9.91826,0.15332 19.93036,2.1365 27.375,7.2539 0.25275,0.16229 0.4937,0.35975 0.74023,0.54297 0.9172,0.73637 1.77117,1.51722 2.54102,2.35157 0.002,0.003 0.005,0.005 0.008,0.008 0.008,0.009 0.0171,0.018 0.0254,0.0273 0.17928,0.195 0.34593,0.39396 0.51758,0.5918 0.34773,0.42629 0.68552,0.86711 1.00586,1.32617 1.47324,2.06046 2.65335,4.72235 3.76563,7.75195 2.47022,6.71215 3.56188,14.63203 5.06835,23.63086 1.30053,8.56336 2.82999,18.29541 6.30274,28.42188 1.59413,4.63855 3.86215,9.44164 7.04101,14.13476 3.15879,4.61514 7.26236,8.74201 12.22461,12.05664 8.61944,5.49597 18.2631,8.09861 27.63477,8.10352 9.20745,0.38546 19.25231,-2.02515 28.40234,-8.17969 6.07063,-4.41135 10.91484,-9.87955 14.45313,-15.88086 3.61354,-6.11312 6.12669,-12.46195 7.79687,-18.71679 3.36947,-12.58107 4.38037,-25.17229 4.2168,-37.26758 -0.007,-1.7033 -0.0326,-3.41541 -0.0684,-5.13086 0.10548,-16.68134 -0.0566,-23.55 -3.67578,-39.15039 -0.17975,-0.77483 -0.36661,-1.51971 -0.54883,-2.2832 -1.2026,-6.18364 -2.68564,-12.368 -4.51953,-18.52344 -3.14518,-10.55745 -7.54286,-21.14769 -13.64062,-31.18946 -5.8592,-9.6649 -13.54157,-18.61044 -23.0586,-25.92382 -6.48904,-4.85078 -13.72417,-8.14177 -21.16406,-9.89844 -7.58691,-1.76872 -14.96289,-2.27475 -21.86915,-2.00586 -15.03779,0.56849 -28.76061,3.49007 -41.49413,6.08789 -6.41934,1.26738 -12.61652,2.47738 -18.60547,3.30469 -3.96864,0.53145 -7.76152,0.93146 -11.36914,1.05859 -0.52128,0.0115 -1.03701,0.0331 -1.56641,0.0371 -1.11379,0.008 -2.13686,-0.0177 -3.14648,-0.0488 -4.19134,-0.22878 -7.96352,-0.7177 -10.91797,-1.93554 -2.86527,-1.07948 -5.55273,-2.86199 -7.5586,-5.06446 -0.15075,-0.10092 -0.29605,-0.21615 -0.43359,-0.34375 -0.46414,-0.54844 -0.85505,-1.11109 -1.18164,-1.70898 -0.98841,-2.08173 -1.44732,-5.23198 -1.73243,-8.72852 -0.002,-0.0309 -0.004,-0.0549 -0.006,-0.0859 -0.0839,-1.44312 -0.0816,-2.88054 -0.0117,-4.29296 0.525,-5.68186 2.0182,-11.0641 4.83985,-14.86133 0.59576,-0.93334 1.63489,-1.84964 2.8418,-2.64258 1.322,-0.91244 3.28115,-1.64433 5.63867,-2.4043 0.25878,-0.0832 0.5198,-0.16434 0.78515,-0.24218 5.25276,-1.54101 11.7858,-2.05979 19.23243,-2.91211 7.61338,-0.7063 16.36864,-1.62314 25.85156,-4.32227 4.38361,-1.24911 9.00208,-3.19513 13.61719,-6.04492 4.59901,-2.88607 8.69057,-6.74048 12.00391,-11.45313 8.13752,-12.14976 11.75696,-25.95829 11.67969,-39.17578 0.45087,-13.21068 -3.22487,-27.41001 -12.3086,-39.66406 -3.61553,-4.54134 -8.03088,-8.09573 -12.93555,-10.54884 -4.92462,-2.39686 -9.71735,-3.80286 -14.13671,-4.48241 -9.70847,-1.50531 -18.40535,-1.2487 -25.83009,-0.93556 -1.19387,0.021 -2.30882,0.0506 -3.44726,0.0781 -8.45438,-0.15428 -13.47902,-0.2887 -16.10352,-0.53906 -0.0418,-0.008 -0.0872,-0.0115 -0.1289,-0.0195 -2.26817,-0.44673 -4.09385,-0.86786 -5.24805,-1.52734 l 0,-0.002 c -0.18176,-0.0939 -0.35448,-0.19666 -0.52735,-0.29883 -0.65838,-0.44461 -1.29869,-0.98607 -1.91797,-1.62305 -4.05158,-4.95638 -7.1786,-12.00481 -7.48047,-18.71679 -0.33148,-7.37068 1.26444,-15.8497 6.33642,-21.20804 5.67413,-5.9945 15.15808,-7.03097 23.30119,-8.37985 11.47136,-1.9002 23.28973,-0.36601 34.87803,0.59004 15.7701,1.30105 31.1575,6.06095 46.95407,6.98666 24.81101,1.45399 49.73001,-0.58958 74.52573,-2.28441 30.92095,-2.11351 61.53496,-7.75409 92.45891,-9.82334 16.09158,-1.07676 32.23904,-1.63283 48.36402,-1.34395 8.40758,0.15062 16.95265,0.93351 25.17577,1.60351 6.8859,0.56345 13.43275,0.59092 19.94727,2.09375 6.17866,1.42536 12.95707,2.50227 17.87689,6.50263 4.01639,3.26576 6.31874,8.37171 8.17389,13.2044 1.42235,3.70523 1.75543,7.70974 2.11719,11.7168 0.0599,0.66113 0.10653,1.32451 0.14843,1.98828 -1.68322,1.81769 -4.00643,3.33871 -6.84765,4.80469 -3.35374,1.67969 -6.88185,2.8376 -11.35352,4.44726 -3.74102,1.3076 -8.20045,2.9343 -12.61718,5.45118 -3.97825,2.2212 -7.96639,5.6556 -10.83399,10.63281 -2.46184,4.48889 -3.91115,9.65407 -4.05469,15.07423 -0.32373,5.01841 0.95765,10.85813 4.94336,16.1875 4.34963,5.02086 10.09137,8.04789 15.94923,9.03906 5.52382,1.18144 11.70186,1.02087 17.81054,-1.10352 5.94921,-2.3475 10.63694,-6.31429 13.79492,-10.94336 3.16921,-4.4116 5.50626,-9.35548 6.9707,-14.55468 3.68435,-12.48208 6.54924,-26.88359 6.00586,-42.21486 -0.25745,-7.13965 -0.87581,-15.40041 -4.11914,-22.1875 -3.81735,-7.98832 -10.14091,-14.93118 -17.27297,-20.17706 -6.79038,-4.99456 -15.11789,-7.71046 -23.23679,-9.97723 -6.85399,-1.91362 -14.07528,-2.12488 -21.14258,-2.95703 -8.60888,-1.01367 -17.22659,-2.10067 -25.88672,-2.47852 -21.00457,-0.91644 -42.06897,-0.44125 -63.07153,0.5202 -23.90368,1.09426 -47.64944,4.5757 -71.53757,5.96888 -22.09626,1.28869 -44.25208,3.1771 -66.36469,2.20853 z m 272.70023,64.8354 c -0.5906,7.42684 -1.95245,14.8135 -3.57812,21.82618 -0.8206,3.43609 -2.062,6.60666 -3.78907,9.25782 -1.8093,2.5358 -3.58864,4.60962 -5.44531,5.24414 -2.56929,1.19097 -5.85887,1.41328 -9.03125,1.03906 -3.17899,-0.62531 -5.95816,-1.49558 -7.20898,-3.10352 -1.33664,-0.97324 -1.87342,-3.63218 -2.17773,-6.39648 -0.12352,-3.17494 0.4657,-6.30809 1.67969,-8.97462 0.86302,-2.28247 3.09159,-4.37238 5.53516,-6.17578 2.9293,-2.08603 6.70877,-3.80036 10.2832,-5.47069 4.21323,-1.92538 8.13062,-3.70258 12.07617,-6.16603 0.56581,-0.34506 1.11594,-0.70661 1.65625,-1.08008 z M 98.960873,900.70405 c 0.221977,0.29639 0.432506,0.59658 0.666015,0.88867 3.106792,3.63265 7.017132,6.14909 11.105472,7.57422 4.02917,1.47338 7.87449,2.28064 11.55273,3.01367 3.44468,0.73447 6.77631,1.37493 9.42188,2.42773 1.01556,0.4401 1.95901,0.89912 2.7832,1.38672 0.72087,0.50198 1.33966,1.05946 1.9961,1.74219 0.36421,0.37881 0.70219,0.79491 1.02929,1.22656 1.44438,2.06496 2.52734,4.52211 3.16602,7.14258 0.41995,2.12446 0.62801,4.2331 0.34765,5.9668 -0.007,0.0436 -0.0157,0.0856 -0.0234,0.1289 -0.097,0.54483 -0.24065,1.05441 -0.44726,1.50977 -0.45557,1.76154 -2.36612,3.56713 -4.72461,5.5 -2.50243,1.87478 -5.5913,3.32158 -9.03516,4.52148 -0.32351,0.099 -0.65619,0.17775 -0.98632,0.26368 -1.448,0.33542 -2.91885,0.55474 -4.37305,0.63671 -0.95,0.0536 -1.66288,0.0761 -2.3418,0.0859 -1.95171,-0.10672 -3.81197,-0.50593 -5.39258,-1.30469 -4.80662,-2.09404 -9.13612,-6.13326 -12.1543,-11.08398 -0.13739,-0.22892 -0.27829,-0.45494 -0.41015,-0.6875 -0.0566,-0.0983 -0.11049,-0.19789 -0.16602,-0.29687 -0.89453,-1.61709 -1.647731,-3.31836 -2.246091,-5.06446 -1.050966,-3.30321 -1.442126,-7.12932 -1.472657,-11.25195 0.0103,-4.54197 0.694541,-9.30976 1.705079,-14.32617 z"
       id="path4734-8-8"
       sodipodi:nodetypes="aaaaacccccccccccccccsccccccccccccccccccccccccccccccccccccccccccccccccccccccscccccccccccccccccccsccccccccccccccccccccccccccccccccccccccaaaaaaaacaaacccccccccccccaaaaaaaaccccccccccccccccccscccccccccccccccccc" />
  </g>
  <g
     inkscape:groupmode="layer"
     id="layer5"
     inkscape:label="Snake"
     style="display:none">
    <path
       style="display:inline;opacity:1;fill:#007800;fill-opacity:1;stroke:#646464;stroke-width:0;stroke-linecap:butt;stroke-linejoin:miter;stroke-miterlimit:4;stroke-dasharray:none;stroke-opacity:1"
       d="m 223.45703,17.650391 c -17.39168,-0.01659 -35.13663,0.149783 -53.14844,0.546875 -20.41081,0.44875 -41.4204,1.181921 -62.63867,2.52539 -8.579176,0.543006 -17.277313,1.19603 -26.037108,2.046875 -6.992243,0.676336 -14.149584,1.489854 -21.404296,2.613281 -5.087936,0.764003 -10.615824,1.766873 -16.439454,3.419922 -1.959323,0.537977 -4.257689,1.322129 -6.832031,2.470704 -1.618765,0.51974 -4.098419,2.07098 -7.228515,4.853515 -5.877408,5.931632 -10.109464,12.987637 -12.576172,20.515625 -2.451949,7.492741 -3.421731,15.141605 -3.132813,22.542969 0.330564,14.229387 4.949545,28.707173 14.212891,40.892573 3.563421,4.51101 7.931894,8.06503 12.810547,10.5293 4.879531,2.40015 9.650461,3.8255 14.066406,4.52735 9.653921,1.5478 18.322683,1.34792 25.804687,1.08203 1.749609,-0.0196 3.429166,-0.0545 5.066407,-0.082 7.340859,0.19633 11.87121,0.40493 14.814451,0.75781 2.13851,0.44811 3.87076,0.87883 4.95117,1.52344 0.96725,0.52444 1.82293,1.17762 2.26563,1.83398 3.86615,4.33179 5.23646,11.90476 5.4668,19.83008 -0.29628,7.9821 -2.03925,15.76369 -5.97657,21.1582 -0.54408,0.70395 -1.12331,1.33669 -1.73633,1.89649 -0.38534,0.31894 -0.79398,0.6293 -1.23828,0.91992 -1.32615,0.9115 -3.2881,1.64069 -5.648434,2.39843 -5.384862,1.72522 -12.192783,2.24685 -20.023437,3.13672 -7.241077,0.66568 -15.526033,1.52266 -24.492188,3.92774 -0.452909,0.12149 -0.906947,0.24544 -1.363281,0.375 -4.384301,1.24625 -9.008244,3.19128 -13.628906,6.04101 -4.602242,2.88472 -8.697907,6.73849 -12.017578,11.45508 -7.142304,10.61269 -10.527803,22.63067 -10.644532,34.27149 -0.815543,11.55513 2.696332,24.57026 12.119141,35.70703 5.518141,5.87814 12.261728,10.35176 19.716797,13.14453 7.430844,2.6753 14.754838,3.81056 21.568359,3.91601 7.459656,0.16796 14.506947,-0.47558 21.080078,-1.45703 7.096415,-1.03391 13.882651,-2.38032 20.378911,-3.71289 12.24956,-2.43378 23.44522,-5.02325 33.93554,-5.62695 1.34438,-0.0424 2.72071,-0.0672 4.26563,-0.0684 3.32158,-0.003 6.13103,0.11363 8.61328,0.40625 1.05594,0.15324 2.07607,0.34857 3.05664,0.59375 3.68431,0.90117 7.09565,2.33051 9.69336,4.33984 6.05813,4.44524 11.25761,10.51945 15.5664,17.31446 4.53607,7.17223 7.96189,15.35589 10.69336,23.94531 5.68796,17.89399 7.76435,37.23681 8.22852,56.53906 0.14178,10.50502 -0.36223,20.40202 -2.74219,29.29688 -1.164,4.33174 -2.56129,8.26308 -4.48437,11.49609 -1.81778,3.04004 -3.92735,5.66421 -6.30469,7.3418 -2.26858,2.07502 -6.64834,2.85905 -11.32813,3.11718 -4.86339,-0.12537 -9.49079,-1.04329 -12.63671,-3.19335 -1.73452,-1.03743 -3.3555,-2.64359 -4.74219,-4.51368 -1.50671,-1.99205 -2.74142,-4.62285 -3.9082,-7.58984 -0.12737,-0.32379 -0.23797,-0.66736 -0.35938,-0.99805 -0.97081,-2.87501 -1.91829,-6.3159 -2.91211,-10.54297 -0.81959,-3.82283 -1.53811,-7.85832 -2.32812,-12.02734 -1.53808,-8.82312 -3.27486,-18.34903 -6.92383,-28.2168 -1.7096,-4.61623 -4.07957,-9.3025 -7.29688,-13.79492 -3.26393,-4.51005 -7.41577,-8.42084 -12.28906,-11.47265 -13.81306,-8.26595 -29.199643,-11.05144 -43.316406,-10.23438 -14.888022,0.57235 -29.523407,4.96775 -41.910156,13.25 -4.697355,3.24273 -8.450977,7.20443 -11.277344,11.47852 -2.932916,4.43085 -5.050846,8.96899 -6.59375,13.35156 -3.221151,9.1554 -4.81416,18.11556 -6.160156,26.02539 -1.171181,6.46032 -1.852005,13.1463 -1.664062,20.01367 0.143437,7.03135 1.545983,14.27543 4.623046,21.17188 5.203321,11.47056 14.564227,20.29495 25.72461,24.78711 9.281365,3.51341 18.889637,2.94181 26.90625,-0.31836 4.817537,-1.86469 9.452443,-4.4491 13.623047,-7.83399 4.369055,-3.37008 8.043625,-8.24842 10.044922,-14.34375 1.666858,-6.19929 1.222526,-12.12273 -0.40625,-17.11523 -1.591842,-5.3054 -4.346065,-10.11519 -7.982422,-14.08203 -3.734313,-3.85382 -8.006301,-6.0995 -12.013672,-7.22071 -4.308419,-1.27586 -8.353377,-1.83051 -11.78125,-2.26953 -3.763397,-0.53749 -6.874205,-0.89437 -9.607422,-1.72265 -1.562144,-0.51131 -2.9597,-1.05569 -4.080078,-1.71485 -0.731871,-0.51335 -1.446093,-1.12618 -2.134766,-1.82617 -2.389101,-2.63311 -4.095563,-5.88626 -5.134765,-9.16211 -0.129526,-0.44731 -0.245903,-0.88969 -0.353516,-1.33008 0.54225,-1.73352 1.130475,-3.41019 1.787109,-5.00976 1.271161,-3.09644 2.652887,-5.92762 4.339844,-8.18946 1.568355,-2.09238 3.310457,-3.88644 5.171875,-4.98047 7.130271,-4.63435 16.02612,-7.18971 25.457031,-7.97851 0.635787,-0.0438 1.259056,-0.094 1.919922,-0.125 1.259833,-0.0591 2.488936,-0.0799 3.705078,-0.082 9.918266,0.15332 19.930361,2.1365 27.375001,7.2539 0.25275,0.16229 0.4937,0.35975 0.74023,0.54297 0.9172,0.73637 1.77117,1.51722 2.54102,2.35157 0.002,0.003 0.005,0.005 0.008,0.008 0.008,0.009 0.0171,0.018 0.0254,0.0273 0.17928,0.195 0.34593,0.39396 0.51758,0.5918 0.34773,0.42629 0.68552,0.86711 1.00586,1.32617 1.47324,2.06046 2.65335,4.72235 3.76563,7.75195 2.47022,6.71215 3.56188,14.63203 5.06835,23.63086 1.30053,8.56336 2.82999,18.29541 6.30274,28.42188 1.59413,4.63855 3.86215,9.44164 7.04101,14.13476 3.15879,4.61514 7.26236,8.74201 12.22461,12.05664 8.61944,5.49597 18.2631,8.09861 27.63477,8.10352 9.20745,0.38546 19.25231,-2.02515 28.40234,-8.17969 6.07063,-4.41135 10.91484,-9.87955 14.45313,-15.88086 3.61354,-6.11312 6.12669,-12.46195 7.79687,-18.71679 3.36947,-12.58107 4.38037,-25.17229 4.2168,-37.26758 -0.007,-1.7033 -0.0326,-3.41541 -0.0684,-5.13086 0.10548,-16.68134 -0.0566,-23.55 -3.67578,-39.15039 -0.17975,-0.77483 -0.36661,-1.51971 -0.54883,-2.2832 -1.2026,-6.18364 -2.68564,-12.368 -4.51953,-18.52344 -3.14518,-10.55745 -7.54286,-21.14769 -13.64062,-31.18946 -5.8592,-9.6649 -13.54157,-18.61044 -23.0586,-25.92382 -6.48904,-4.85078 -13.72417,-8.14177 -21.16406,-9.89844 -7.5869,-1.76872 -14.96288,-2.27475 -21.86914,-2.00586 -15.03779,0.56849 -28.76062,3.49007 -41.49414,6.08789 -6.419333,1.26738 -12.616519,2.47738 -18.605471,3.30469 -3.96864,0.53145 -7.761517,0.93146 -11.369141,1.05859 -0.521278,0.0115 -1.037008,0.0331 -1.566406,0.0371 -1.113785,0.008 -2.136855,-0.0177 -3.146484,-0.0488 -4.191334,-0.22878 -7.96352,-0.7177 -10.917969,-1.93554 -2.865263,-1.07948 -5.552724,-2.86199 -7.558594,-5.06446 -0.150745,-0.10092 -0.29605,-0.21615 -0.433594,-0.34375 -0.464134,-0.54844 -0.855042,-1.11109 -1.18164,-1.70898 -0.988404,-2.08173 -1.447313,-5.23198 -1.732422,-8.72852 -0.0018,-0.0309 -0.0041,-0.0549 -0.0059,-0.0859 -0.08387,-1.44312 -0.08155,-2.88054 -0.01172,-4.29296 0.525001,-5.68186 2.018194,-11.0641 4.839843,-14.86133 0.595761,-0.93334 1.634886,-1.84964 2.841797,-2.64258 1.322004,-0.91244 3.281153,-1.64433 5.638672,-2.4043 0.258783,-0.0832 0.519802,-0.16434 0.785156,-0.24218 5.252755,-1.54101 11.785795,-2.05979 19.232422,-2.91211 7.61338,-0.7063 16.368641,-1.62314 25.851559,-4.32227 4.38361,-1.24911 9.00208,-3.19513 13.61719,-6.04492 4.59901,-2.88607 8.69057,-6.74048 12.00391,-11.45313 8.13752,-12.14976 11.75696,-25.95829 11.67969,-39.17578 0.45087,-13.21068 -3.22487,-27.41001 -12.3086,-39.66406 -3.61553,-4.54133 -8.03088,-8.09573 -12.93555,-10.54883 -4.92462,-2.39687 -9.71735,-3.80286 -14.13671,-4.48242 -9.708464,-1.5053 -18.405345,-1.24869 -25.830082,-0.93555 -1.193876,0.021 -2.308819,0.0506 -3.447266,0.0781 -8.454379,-0.15428 -13.479013,-0.2887 -16.103516,-0.53906 -0.04182,-0.008 -0.08725,-0.0115 -0.128906,-0.0195 -2.268162,-0.44674 -4.093842,-0.86786 -5.248047,-1.52734 l 0,-0.002 c -0.18176,-0.0939 -0.354474,-0.19666 -0.527344,-0.29883 -0.658386,-0.44461 -1.298695,-0.98607 -1.917968,-1.62305 -4.051581,-4.956382 -6.498517,-11.690234 -7.480469,-18.716794 -0.437292,-4.035484 -0.442091,-8.293144 0.03125,-11.810547 0.234035,-1.420289 0.56105,-2.786226 0.99414,-4.074219 0.969409,-2.888837 2.357095,-5.560657 4.111329,-7.609375 0.01393,-0.01004 0.02701,-0.02132 0.04102,-0.03125 0.49753,-0.190782 1.109737,-0.3965 1.951172,-0.669922 3.717383,-1.153975 7.999855,-1.934402 12.673828,-2.744141 6.424575,-1.081841 13.012348,-1.908824 19.683594,-2.648437 8.317038,-0.918826 16.68185,-1.65781 25.0293,-2.306641 20.65136,-1.604616 41.27898,-2.648031 61.4375,-3.441406 21.78415,-0.856212 43.19313,-1.38699 64.09765,-1.705078 27.94961,-0.192634 61.85017,-0.18811 87.82422,0.02539 16.82609,0.294088 33.02421,0.764377 48.94336,1.552734 8.60725,0.426405 16.95266,0.933518 25.17578,1.603516 6.8859,0.563446 13.49213,1.203547 19.94727,2.09375 4.83977,0.686598 9.2395,1.358546 13.24219,2.447265 1.36836,0.385569 2.46161,0.691116 3.24023,1.039063 0.2067,0.141459 0.33314,0.204967 0.39063,0.21289 2.67643,2.666389 4.88626,5.880499 6.58984,9.34375 0.96747,2.075686 1.84108,4.332632 2.58789,6.664063 1.09705,3.738434 1.75543,7.709737 2.11719,11.716797 0.0599,0.661125 0.10653,1.324511 0.14843,1.988281 -1.68322,1.817689 -4.00643,3.338706 -6.84765,4.804688 -3.35374,1.679687 -6.88185,2.837596 -11.35352,4.447265 -3.74102,1.307599 -8.20045,2.934297 -12.61718,5.451172 -3.97825,2.221205 -7.96639,5.655605 -10.83399,10.632815 -2.46184,4.48889 -3.91115,9.65407 -4.05469,15.07422 -0.32374,5.01841 0.95764,10.85813 4.94336,16.1875 4.34963,5.02086 10.09137,8.04789 15.94922,9.03906 5.52382,1.18144 11.70187,1.02087 17.81055,-1.10352 5.94921,-2.3475 10.63694,-6.31429 13.79492,-10.94336 3.16921,-4.4116 5.50626,-9.35548 6.9707,-14.55468 3.68435,-12.48207 6.54924,-26.883582 6.00586,-42.214848 -0.25745,-7.139651 -1.45325,-14.687652 -4.11914,-22.1875 -2.6005,-7.251919 -6.74689,-14.222922 -12.49414,-20.193359 -2.43151,-2.220133 -4.4875,-3.509866 -5.9375,-4.039062 -2.25235,-1.046364 -4.34157,-1.791959 -6.20508,-2.34375 -5.44628,-1.651732 -10.75468,-2.70853 -15.87304,-3.578125 -7.01514,-1.214821 -14.0337,-2.143704 -21.14258,-2.957032 -8.52112,-0.977254 -17.11309,-1.775239 -25.88672,-2.478515 -20.23618,-1.622577 -40.84732,-2.717314 -62.49219,-3.535157 -22.7678,-0.8613 -46.16842,-1.376239 -70.3789,-1.5625 -5.71539,-0.04407 -11.47426,-0.07064 -17.27149,-0.07617 z m 221.86914,78.707031 c -0.5906,7.426838 -1.95245,14.813498 -3.57812,21.826168 -0.8206,3.4361 -2.062,6.60666 -3.78907,9.25782 -1.80931,2.5358 -3.58865,4.60962 -5.44531,5.24414 -2.56929,1.19097 -5.85887,1.41328 -9.03125,1.03906 -3.17899,-0.62531 -5.95816,-1.49558 -7.20898,-3.10352 -1.33664,-0.97324 -1.87342,-3.63218 -2.17774,-6.39648 -0.12352,-3.17494 0.4657,-6.30809 1.67969,-8.97461 0.86302,-2.28247 3.09159,-4.37238 5.53516,-6.17578 2.9293,-2.08603 6.70877,-3.80036 10.2832,-5.4707 4.21323,-1.92538 8.13062,-3.702574 12.07617,-6.16602 0.56581,-0.345059 1.11594,-0.706617 1.65625,-1.080078 z M 39.460938,408.8418 c 0.221977,0.29639 0.432506,0.59658 0.666015,0.88867 3.106789,3.63265 7.01713,6.14909 11.105469,7.57422 4.029166,1.47338 7.874493,2.28064 11.552734,3.01367 3.444674,0.73447 6.776306,1.37493 9.421875,2.42773 1.015559,0.4401 1.959011,0.89912 2.783203,1.38672 0.720873,0.50198 1.339657,1.05946 1.996094,1.74219 0.364219,0.37881 0.702196,0.79491 1.029297,1.22656 1.444379,2.06496 2.527339,4.52211 3.166016,7.14258 0.419952,2.12446 0.628016,4.2331 0.347656,5.9668 -0.0072,0.0436 -0.01575,0.0856 -0.02344,0.1289 -0.09702,0.54483 -0.24065,1.05441 -0.447265,1.50977 -0.455571,1.76154 -2.366122,3.56713 -4.72461,5.5 -2.502427,1.87478 -5.591301,3.32158 -9.035156,4.52148 -0.323512,0.099 -0.656193,0.17775 -0.986328,0.26368 -1.447997,0.33542 -2.918841,0.55474 -4.373047,0.63671 -0.949996,0.0536 -1.662882,0.0761 -2.341797,0.0859 -1.951707,-0.10672 -3.811972,-0.50593 -5.392578,-1.30469 -4.806619,-2.09404 -9.136119,-6.13326 -12.154297,-11.08398 -0.137398,-0.22892 -0.278294,-0.45494 -0.410156,-0.6875 -0.05657,-0.0983 -0.110492,-0.19789 -0.166016,-0.29687 -0.894533,-1.61709 -1.647733,-3.31836 -2.246093,-5.06446 -1.050966,-3.30321 -1.442126,-7.12932 -1.472657,-11.25195 0.0103,-4.54197 0.694541,-9.30976 1.705079,-14.32617 z"
       id="path4734"
       inkscape:connector-curvature="0" />
  </g>
  <g
     inkscape:groupmode="layer"
     id="layer6"
     inkscape:label="Path"
     style="display:none">
    <path
       inkscape:connector-curvature="0"
       style="display:inline;opacity:1;fill:#007800;fill-opacity:1;stroke:#646464;stroke-width:0;stroke-linecap:butt;stroke-linejoin:miter;stroke-miterlimit:4;stroke-dasharray:none;stroke-opacity:1"
       d="m 172.62594,31.522015 c -20.23535,-0.886347 -40.11483,-5.926048 -60.32132,-7.323339 -16.366891,-1.13178 -33.053018,-3.693905 -49.210592,-0.84981 -11.72923,2.064607 -24.205429,5.166889 -33.365512,12.778085 -6.169375,5.126189 -9.870943,12.964418 -12.576172,20.515625 -2.558648,7.14205 -3.421731,15.141605 -3.132813,22.542969 0.330564,14.229387 4.949545,28.707175 14.212891,40.892575 3.563421,4.51101 7.931894,8.06503 12.810547,10.5293 4.879531,2.40015 9.650461,3.8255 14.066406,4.52735 9.653921,1.5478 18.322683,1.34792 25.804687,1.08203 1.749609,-0.0196 3.429166,-0.0545 5.066407,-0.082 7.340859,0.19633 11.87121,0.40493 14.814451,0.75781 2.13851,0.44811 3.87076,0.87883 4.95117,1.52344 0.96725,0.52444 1.82293,1.17762 2.26563,1.83398 3.86615,4.33179 5.23646,11.90476 5.4668,19.83008 -0.29628,7.9821 -2.03925,15.76369 -5.97657,21.1582 -0.54408,0.70395 -1.12331,1.33669 -1.73633,1.89649 -0.38534,0.31894 -0.79398,0.6293 -1.23828,0.91992 -1.32615,0.9115 -3.2881,1.64069 -5.648434,2.39843 -5.384862,1.72522 -12.192783,2.24685 -20.023437,3.13672 -7.241077,0.66568 -15.526033,1.52266 -24.492188,3.92774 -0.452909,0.12149 -0.906947,0.24544 -1.363281,0.375 -4.384301,1.24625 -9.008244,3.19128 -13.628906,6.04101 -4.602242,2.88472 -8.697907,6.73849 -12.017578,11.45508 -7.142304,10.61269 -10.527803,22.63067 -10.644532,34.27149 -0.815543,11.55513 2.696332,24.57026 12.119141,35.70703 5.518141,5.87814 12.261728,10.35176 19.716797,13.14453 7.430844,2.6753 14.754838,3.81056 21.568359,3.91601 7.459656,0.16796 14.506947,-0.47558 21.080078,-1.45703 7.096415,-1.03391 13.882651,-2.38032 20.378911,-3.71289 12.24956,-2.43378 23.44522,-5.02325 33.93554,-5.62695 1.34438,-0.0424 2.72071,-0.0672 4.26563,-0.0684 3.32158,-0.003 6.13103,0.11363 8.61328,0.40625 1.05594,0.15324 2.07607,0.34857 3.05664,0.59375 3.68431,0.90117 7.09565,2.33051 9.69336,4.33984 6.05813,4.44524 11.25761,10.51945 15.5664,17.31446 4.53607,7.17223 7.96189,15.35589 10.69336,23.94531 5.68796,17.89399 7.76435,37.23681 8.22852,56.53906 0.14178,10.50502 -0.36223,20.40202 -2.74219,29.29688 -1.164,4.33174 -2.56129,8.26308 -4.48437,11.49609 -1.81778,3.04004 -3.92735,5.66421 -6.30469,7.3418 -2.26858,2.07502 -6.64834,2.85905 -11.32813,3.11718 -4.86339,-0.12537 -9.49079,-1.04329 -12.63671,-3.19335 -1.73452,-1.03743 -3.3555,-2.64359 -4.74219,-4.51368 -1.50671,-1.99205 -2.74142,-4.62285 -3.9082,-7.58984 -0.12737,-0.32379 -0.23797,-0.66736 -0.35938,-0.99805 -0.97081,-2.87501 -1.91829,-6.3159 -2.91211,-10.54297 -0.81959,-3.82283 -1.53811,-7.85832 -2.32812,-12.02734 -1.53808,-8.82312 -3.27486,-18.34903 -6.92383,-28.2168 -1.7096,-4.61623 -4.07957,-9.3025 -7.29688,-13.79492 -3.26393,-4.51005 -7.41577,-8.42084 -12.28906,-11.47265 -13.81306,-8.26595 -29.199643,-11.05144 -43.316406,-10.23438 -14.888022,0.57235 -29.523407,4.96775 -41.910156,13.25 -4.697355,3.24273 -8.450977,7.20443 -11.277344,11.47852 -2.932916,4.43085 -5.050846,8.96899 -6.59375,13.35156 -3.221151,9.1554 -4.81416,18.11556 -6.160156,26.02539 -1.171181,6.46032 -1.852005,13.1463 -1.664062,20.01367 0.143437,7.03135 1.545983,14.27543 4.623046,21.17188 5.203321,11.47056 14.564227,20.29495 25.72461,24.78711 9.281365,3.51341 18.889637,2.94181 26.90625,-0.31836 4.817537,-1.86469 9.452443,-4.4491 13.623047,-7.83399 4.369055,-3.37008 8.043625,-8.24842 10.044922,-14.34375 1.666858,-6.19929 1.222526,-12.12273 -0.40625,-17.11523 -1.591842,-5.3054 -4.346065,-10.11519 -7.982422,-14.08203 -3.734313,-3.85382 -8.006301,-6.0995 -12.013672,-7.22071 -4.308419,-1.27586 -8.353377,-1.83051 -11.78125,-2.26953 -3.763397,-0.53749 -6.874205,-0.89437 -9.607422,-1.72265 -1.562144,-0.51131 -2.9597,-1.05569 -4.080078,-1.71485 -0.731871,-0.51335 -1.446093,-1.12618 -2.134766,-1.82617 -2.389101,-2.63311 -4.095563,-5.88626 -5.134765,-9.16211 -0.129526,-0.44731 -0.245903,-0.88969 -0.353516,-1.33008 0.54225,-1.73352 1.130475,-3.41019 1.787109,-5.00976 1.271161,-3.09644 2.652887,-5.92762 4.339844,-8.18946 1.568355,-2.09238 3.310457,-3.88644 5.171875,-4.98047 7.130271,-4.63435 16.02612,-7.18971 25.457031,-7.97851 0.635787,-0.0438 1.259056,-0.094 1.919922,-0.125 1.259833,-0.0591 2.488936,-0.0799 3.705078,-0.082 9.918266,0.15332 19.930361,2.1365 27.375001,7.2539 0.25275,0.16229 0.4937,0.35975 0.74023,0.54297 0.9172,0.73637 1.77117,1.51722 2.54102,2.35157 0.002,0.003 0.005,0.005 0.008,0.008 0.008,0.009 0.0171,0.018 0.0254,0.0273 0.17928,0.195 0.34593,0.39396 0.51758,0.5918 0.34773,0.42629 0.68552,0.86711 1.00586,1.32617 1.47324,2.06046 2.65335,4.72235 3.76563,7.75195 2.47022,6.71215 3.56188,14.63203 5.06835,23.63086 1.30053,8.56336 2.82999,18.29541 6.30274,28.42188 1.59413,4.63855 3.86215,9.44164 7.04101,14.13476 3.15879,4.61514 7.26236,8.74201 12.22461,12.05664 8.61944,5.49597 18.2631,8.09861 27.63477,8.10352 9.20745,0.38546 19.25231,-2.02515 28.40234,-8.17969 6.07063,-4.41135 10.91484,-9.87955 14.45313,-15.88086 3.61354,-6.11312 6.12669,-12.46195 7.79687,-18.71679 3.36947,-12.58107 4.38037,-25.17229 4.2168,-37.26758 -0.007,-1.7033 -0.0326,-3.41541 -0.0684,-5.13086 0.10548,-16.68134 -0.0566,-23.55 -3.67578,-39.15039 -0.17975,-0.77483 -0.36661,-1.51971 -0.54883,-2.2832 -1.2026,-6.18364 -2.68564,-12.368 -4.51953,-18.52344 -3.14518,-10.55745 -7.54286,-21.14769 -13.64062,-31.18946 -5.8592,-9.6649 -13.54157,-18.61044 -23.0586,-25.92382 -6.48904,-4.85078 -13.72417,-8.14177 -21.16406,-9.89844 -7.5869,-1.76872 -14.96288,-2.27475 -21.86914,-2.00586 -15.03779,0.56849 -28.76062,3.49007 -41.49414,6.08789 -6.419333,1.26738 -12.616519,2.47738 -18.605471,3.30469 -3.96864,0.53145 -7.761517,0.93146 -11.369141,1.05859 -0.521278,0.0115 -1.037008,0.0331 -1.566406,0.0371 -1.113785,0.008 -2.136855,-0.0177 -3.146484,-0.0488 -4.191334,-0.22878 -7.96352,-0.7177 -10.917969,-1.93554 -2.865263,-1.07948 -5.552724,-2.86199 -7.558594,-5.06446 -0.150745,-0.10092 -0.29605,-0.21615 -0.433594,-0.34375 -0.464134,-0.54844 -0.855042,-1.11109 -1.18164,-1.70898 -0.988404,-2.08173 -1.447313,-5.23198 -1.732422,-8.72852 -0.0018,-0.0309 -0.0041,-0.0549 -0.0059,-0.0859 -0.08387,-1.44312 -0.08155,-2.88054 -0.01172,-4.29296 0.525001,-5.68186 2.018194,-11.0641 4.839843,-14.86133 0.595761,-0.93334 1.634886,-1.84964 2.841797,-2.64258 1.322004,-0.91244 3.281153,-1.64433 5.638672,-2.4043 0.258783,-0.0832 0.519802,-0.16434 0.785156,-0.24218 5.252755,-1.54101 11.785795,-2.05979 19.232422,-2.91211 7.61338,-0.7063 16.368641,-1.62314 25.851561,-4.32227 4.38361,-1.24911 9.00208,-3.19513 13.61719,-6.04492 4.59901,-2.88607 8.69057,-6.74048 12.00391,-11.45313 8.13752,-12.14976 11.75696,-25.95829 11.67969,-39.17578 0.45087,-13.21068 -3.22487,-27.41001 -12.3086,-39.66406 -3.61553,-4.54133 -8.03088,-8.09573 -12.93555,-10.54883 -4.92462,-2.39687 -9.71735,-3.80286 -14.13671,-4.48242 -9.708466,-1.5053 -18.405347,-1.24869 -25.830084,-0.93555 -1.193876,0.021 -2.308819,0.0506 -3.447266,0.0781 -8.454379,-0.15428 -13.479013,-0.2887 -16.103516,-0.53906 -0.04182,-0.008 -0.08725,-0.0115 -0.128906,-0.0195 -2.268162,-0.44674 -4.093842,-0.86786 -5.248047,-1.52734 l 0,-0.002 c -0.18176,-0.0939 -0.354474,-0.19666 -0.527344,-0.29883 -0.658386,-0.44461 -1.298695,-0.98607 -1.917968,-1.62305 -4.051581,-4.956384 -7.178607,-12.004818 -7.480469,-18.716796 -0.331487,-7.37068 1.264439,-15.849696 6.336413,-21.208043 5.674126,-5.994498 15.158083,-7.030962 23.301191,-8.379848 11.471355,-1.900201 23.289725,-0.366006 34.878026,0.590044 15.7701,1.301053 31.1575,6.060944 46.95407,6.98666 24.81101,1.453984 49.73001,-0.589581 74.52573,-2.284415 30.92095,-2.113505 61.53496,-7.754084 92.45891,-9.823339 16.09158,-1.076757 32.23904,-1.632827 48.36402,-1.343951 8.40758,0.15062 16.95266,0.933518 25.17578,1.603516 6.8859,0.563446 13.43275,0.590913 19.94727,2.09375 6.17866,1.425357 12.95707,2.502264 17.87689,6.502624 4.01638,3.265767 6.31873,8.371714 8.17389,13.204407 1.42235,3.705223 1.75543,7.709737 2.11719,11.716797 0.0599,0.661125 0.10653,1.324511 0.14843,1.988281 -1.68322,1.817689 -4.00643,3.338706 -6.84765,4.804688 -3.35374,1.679687 -6.88185,2.837596 -11.35352,4.447265 -3.74102,1.307599 -8.20045,2.934297 -12.61718,5.451172 -3.97825,2.221208 -7.96639,5.655608 -10.83399,10.632818 -2.46184,4.48889 -3.91115,9.65407 -4.05469,15.07422 -0.32374,5.01841 0.95764,10.85813 4.94336,16.1875 4.34963,5.02086 10.09137,8.04789 15.94922,9.03906 5.52382,1.18144 11.70187,1.02087 17.81055,-1.10352 5.94921,-2.3475 10.63694,-6.31429 13.79492,-10.94336 3.16921,-4.4116 5.50626,-9.35548 6.9707,-14.55468 3.68435,-12.48207 6.54924,-26.883585 6.00586,-42.214851 -0.25745,-7.139651 -0.87582,-15.400417 -4.11914,-22.1875 -3.81735,-7.988323 -10.14091,-14.931187 -17.27297,-20.177062 -6.79038,-4.994558 -15.11789,-7.710459 -23.23679,-9.977234 -6.854,-1.913616 -14.07528,-2.124882 -21.14258,-2.957032 -8.60889,-1.013668 -17.22659,-2.100668 -25.88672,-2.478515 -21.00457,-0.916444 -42.06897,-0.44125 -63.07153,0.520202 -23.90368,1.094259 -47.64944,4.575695 -71.53757,5.968881 -22.09626,1.288682 -44.25208,3.177101 -66.36469,2.208526 z M 445.32617,96.35742 c -0.5906,7.42684 -1.95245,14.8135 -3.57812,21.82617 -0.8206,3.4361 -2.062,6.60666 -3.78907,9.25782 -1.80931,2.5358 -3.58865,4.60962 -5.44531,5.24414 -2.56929,1.19097 -5.85887,1.41328 -9.03125,1.03906 -3.17899,-0.62531 -5.95816,-1.49558 -7.20898,-3.10352 -1.33664,-0.97324 -1.87342,-3.63218 -2.17774,-6.39648 -0.12352,-3.17494 0.4657,-6.30809 1.67969,-8.97461 0.86302,-2.28247 3.09159,-4.37238 5.53516,-6.17578 2.9293,-2.08603 6.70877,-3.80036 10.2832,-5.4707 4.21323,-1.92538 8.13062,-3.702576 12.07617,-6.166022 0.56581,-0.345059 1.11594,-0.706617 1.65625,-1.080078 z M 39.460938,408.8418 c 0.221977,0.29639 0.432506,0.59658 0.666015,0.88867 3.106789,3.63265 7.01713,6.14909 11.105469,7.57422 4.029166,1.47338 7.874493,2.28064 11.552734,3.01367 3.444674,0.73447 6.776306,1.37493 9.421875,2.42773 1.015559,0.4401 1.959011,0.89912 2.783203,1.38672 0.720873,0.50198 1.339657,1.05946 1.996094,1.74219 0.364219,0.37881 0.702196,0.79491 1.029297,1.22656 1.444379,2.06496 2.527339,4.52211 3.166016,7.14258 0.419952,2.12446 0.628016,4.2331 0.347656,5.9668 -0.0072,0.0436 -0.01575,0.0856 -0.02344,0.1289 -0.09702,0.54483 -0.24065,1.05441 -0.447265,1.50977 -0.455571,1.76154 -2.366122,3.56713 -4.72461,5.5 -2.502427,1.87478 -5.591301,3.32158 -9.035156,4.52148 -0.323512,0.099 -0.656193,0.17775 -0.986328,0.26368 -1.447997,0.33542 -2.918841,0.55474 -4.373047,0.63671 -0.949996,0.0536 -1.662882,0.0761 -2.341797,0.0859 -1.951707,-0.10672 -3.811972,-0.50593 -5.392578,-1.30469 -4.806619,-2.09404 -9.136119,-6.13326 -12.154297,-11.08398 -0.137398,-0.22892 -0.278294,-0.45494 -0.410156,-0.6875 -0.05657,-0.0983 -0.110492,-0.19789 -0.166016,-0.29687 -0.894533,-1.61709 -1.647733,-3.31836 -2.246093,-5.06446 -1.050966,-3.30321 -1.442126,-7.12932 -1.472657,-11.25195 0.0103,-4.54197 0.694541,-9.30976 1.705079,-14.32617 z"
       id="path4734-8"
       sodipodi:nodetypes="aaaaacccccccccccccccsccccccccccccccccccccccccccccccccccccccccccccccccccccccscccccccccccccccccccsccccccccccccccccccccccccccccccccccccccaaaaaaaacaaacccccccccccccaaaaaaaaccccccccccccccccccscccccccccccccccccc" />
  </g>
</svg>
